<svg width="163" height="163" viewBox="0 0 163 163" fill="none" xmlns="http://www.w3.org/2000/svg">
<g clip-path="url(#clip0_1_894)">
<path d="M163 163H148.781C148.781 129.407 121.456 102.094 87.8498 102.094V87.8809C129.292 87.8809 163.034 121.575 163.034 163.034L163 163Z" fill="#FFC614"/>
<path d="M141.924 163H127.705C127.705 141.021 109.838 123.162 87.8498 123.162V108.948C117.673 108.948 141.924 133.189 141.924 163Z" fill="#9ECF77"/>
<path d="M120.409 163H106.19C106.19 152.872 97.9486 144.634 87.816 144.634V130.42C105.784 130.42 120.409 145.039 120.409 163Z" fill="#A5DAF2"/>
<path d="M0.0675659 0L37.6596 37.5427L0.0675659 75.1191V0Z" fill="#FFE600"/>
<path d="M75.2178 75.1191L37.6595 37.5427L75.2178 0V75.1191Z" fill="#FFC614"/>
<path d="M17.3268 122.385C26.8961 122.385 34.6535 114.631 34.6535 105.065C34.6535 95.5001 26.8961 87.7458 17.3268 87.7458C7.75746 87.7458 0 95.5001 0 105.065C0 114.631 7.75746 122.385 17.3268 122.385Z" fill="#65AA59"/>
<path d="M57.891 122.385C67.4603 122.385 75.2178 114.631 75.2178 105.065C75.2178 95.5001 67.4603 87.7458 57.891 87.7458C48.3217 87.7458 40.5642 95.5001 40.5642 105.065C40.5642 114.631 48.3217 122.385 57.891 122.385Z" fill="#9ECF77"/>
<path d="M17.3268 163C26.8961 163 34.6535 155.246 34.6535 145.68C34.6535 136.115 26.8961 128.361 17.3268 128.361C7.75746 128.361 0 136.115 0 145.68C0 155.246 7.75746 163 17.3268 163Z" fill="#788773"/>
<path d="M57.891 163C67.4603 163 75.2178 155.246 75.2178 145.68C75.2178 136.115 67.4603 128.361 57.891 128.361C48.3217 128.361 40.5642 136.115 40.5642 145.68C40.5642 155.246 48.3217 163 57.891 163Z" fill="#CFE296"/>
<path d="M108.689 69.9873C115.343 69.9873 121.524 66.5437 125.408 60.7705C129.292 66.5099 135.473 69.9873 142.127 69.9873C153.61 69.9873 162.966 59.7576 162.966 47.1984C162.966 43.0457 161.919 38.9944 159.994 35.4494C159.994 35.4494 159.994 35.4157 159.96 35.3819C151.449 20.1218 126.624 1.04657 125.408 0.13501C124.192 1.08033 99.3672 20.1218 90.8558 35.3819C90.8558 35.3819 90.8558 35.4157 90.822 35.4494C88.8631 38.9944 87.8498 43.0457 87.8498 47.1984C87.8498 59.7576 97.2056 69.9873 108.689 69.9873Z" fill="#A5DAF2"/>
<path d="M128.11 30.0139H122.368V75.5243H128.11V30.0139Z" fill="#5FB3E4"/>
<path d="M111.16 39.1235L107.099 43.1812L123.551 59.6325L127.612 55.5748L111.16 39.1235Z" fill="#5FB3E4"/>
<path d="M139.019 39.1531L122.569 55.6073L126.631 59.6643L143.08 43.2101L139.019 39.1531Z" fill="#5FB3E4"/>
</g>
<defs>
<clipPath id="clip0_1_894">
<rect width="163" height="163" fill="white"/>
</clipPath>
</defs>
</svg>
